<?xml version="1.0" standalone="no"?>
<!DOCTYPE svg PUBLIC "-//W3C//DTD SVG 20010904//EN"
 "http://www.w3.org/TR/2001/REC-SVG-20010904/DTD/svg10.dtd">
<svg version="1.0" xmlns="http://www.w3.org/2000/svg"
 width="256.000000pt" height="256.000000pt" viewBox="0 0 256.000000 256.000000"
 preserveAspectRatio="xMidYMid meet">

<g transform="translate(0.000000,256.000000) scale(0.100000,-0.100000)"
fill="#000000" stroke="none">
<path d="M1135 2478 c-89 -54 -300 -177 -395 -231 -19 -10 -46 -27 -60 -36
-47 -30 -65 -41 -80 -48 -8 -4 -59 -33 -113 -65 -55 -32 -101 -58 -103 -58
-13 0 -156 -95 -163 -109 -11 -20 -17 -1228 -6 -1253 7 -17 76 -66 135 -95 8
-4 47 -26 85 -48 39 -23 93 -54 120 -69 28 -16 151 -87 275 -158 124 -72 267
-155 318 -184 57 -33 105 -54 124 -54 30 0 68 19 208 102 41 25 95 56 120 70
79 44 243 140 309 179 34 22 65 39 67 39 2 0 66 37 142 83 75 45 150 89 165
97 16 8 32 21 36 30 13 25 23 1211 11 1246 -8 24 -30 42 -88 75 -42 24 -85 49
-97 56 -11 7 -27 16 -35 20 -9 4 -100 58 -204 118 -193 113 -218 127 -321 184
-33 19 -64 37 -70 41 -5 4 -31 19 -56 33 -75 41 -94 52 -99 57 -16 16 -76 40
-98 39 -15 0 -72 -28 -127 -61z m215 -196 c30 -16 73 -40 95 -52 22 -12 54
-30 70 -40 17 -10 53 -30 80 -44 54 -27 142 -75 237 -131 32 -19 61 -35 63
-35 3 0 27 -14 55 -31 l50 -31 0 -438 c0 -241 -4 -449 -9 -463 -6 -14 -32 -35
-64 -53 -63 -32 -62 -40 10 -76 88 -44 83 -100 -12 -154 -33 -18 -69 -38 -80
-44 -11 -6 -33 -19 -50 -29 -16 -10 -57 -34 -90 -53 -33 -19 -138 -81 -234
-136 -96 -56 -185 -102 -198 -102 -13 0 -58 20 -101 44 -138 79 -446 258 -477
277 -16 10 -37 22 -45 26 -8 4 -36 20 -62 36 -42 25 -48 33 -48 62 0 27 7 37
40 59 22 14 42 26 46 26 3 0 23 14 44 30 21 17 41 30 44 30 4 0 40 20 80 45
41 25 79 45 85 45 6 0 11 4 11 8 0 5 15 16 33 25 17 9 55 30 82 46 28 16 61
36 75 44 14 7 43 24 65 37 22 12 57 32 78 42 l37 20 0 522 c0 288 3 526 7 529
3 4 11 3 17 -2 6 -4 36 -22 66 -39z"/>
</g>
</svg>
